<svg height="512pt" viewBox="0 0 512.001 512" width="512pt" xmlns="http://www.w3.org/2000/svg"><path d="m206.734375 223.867188c0 8.285156-6.71875 15-15 15-8.285156 0-15-6.714844-15-15 0-8.285157 6.714844-15 15-15 8.28125 0 15 6.714843 15 15zm0 0"/><path d="m424.699219 112.46875h-41.230469v-25.167969c0-48.214843-39.007812-87.300781-87.300781-87.300781h-208.867188c-48.214843 0-87.300781 39.003906-87.300781 87.300781v281.167969c0 12.539062 14.703125 19.769531 24.601562 11.523438l92.230469-76.859376h11.703125v41.234376c0 48.214843 39.003906 87.300781 87.300782 87.300781h179.335937l92.226563 76.855469c2.75 2.292968 6.160156 3.476562 9.605468 3.476562 8.246094 0 14.996094-6.691406 14.996094-15v-297.234375c0-48.214844-39.003906-87.296875-87.300781-87.296875zm-313.300781 160.664062c-3.507813 0-6.90625 1.230469-9.601563 3.476563l-71.796875 59.832031v-249.140625c0-31.648437 25.601562-57.300781 57.300781-57.300781h208.867188c31.644531 0 57.300781 25.601562 57.300781 57.300781v128.535157c0 31.59375-25.707031 57.296874-57.300781 57.296874zm370.601562 191.84375-71.796875-59.832031c-2.695313-2.246093-6.09375-3.476562-9.601563-3.476562h-184.769531c-15.304687 0-29.695312-5.960938-40.515625-16.785157-10.824218-10.820312-16.785156-25.210937-16.785156-40.515624v-41.234376h137.632812c18.765626 0 36.167969-5.953124 50.417969-16.066406h70.082031c8.285157 0 15-6.714844 15-15 0-8.28125-6.714843-15-15-15h-43.566406c5.570313-10.351562 9.113282-21.953125 10.089844-34.265625h33.476562c8.285157 0 15-6.714843 15-15 0-8.285156-6.714843-15-15-15h-33.199218v-50.332031h41.234375c15.308593 0 29.695312 5.957031 40.519531 16.78125 10.820312 10.820312 16.78125 25.210938 16.78125 40.515625zm0 0"/><path d="m166.566406 119.417969c0-6.71875 2.617188-13.03125 7.367188-17.785157 4.75-4.75 11.066406-7.367187 17.800781-7.367187 13.875 0 25.167969 11.292969 25.167969 25.167969 0 13.878906-11.292969 25.167968-25.167969 25.167968-8.285156 0-15 6.714844-15 15v16.066407c0 8.28125 6.714844 15 15 15 8.28125 0 15-6.71875 15-15v-3.140625c23.152344-6.550782 40.164063-27.871094 40.164063-53.09375 0-30.421875-24.746094-55.167969-55.179688-55.167969-14.730469 0-28.582031 5.738281-39 16.152344-10.414062 10.417969-16.152344 24.269531-16.152344 38.996093v.015626c0 8.285156 6.714844 14.992187 15 14.992187s15-6.71875 15-15.003906zm0 0"/><path d="m416.667969 321.332031h-192.800781c-8.285157 0-15 6.71875-15 15 0 8.285157 6.714843 15 15 15h192.800781c8.28125 0 15-6.714843 15-15 0-8.28125-6.71875-15-15-15zm0 0"/></svg>