<?xml version="1.0" encoding="iso-8859-1"?>
<!-- Generator: Adobe Illustrator 19.0.0, SVG Export Plug-In . SVG Version: 6.00 Build 0)  -->
<svg version="1.1" id="Capa_1" xmlns="http://www.w3.org/2000/svg" xmlns:xlink="http://www.w3.org/1999/xlink" x="0px" y="0px"
	 viewBox="0 0 512 512" style="enable-background:new 0 0 512 512;" xml:space="preserve">
<g>
	<g>
		<path d="M478.846,410.474L384,353.537l-0.008-26.479c11.702-15.338,19.978-33.008,24.271-51.817
			c0.906-4.666,3.17-8.961,6.508-12.346c7.642-7.601,11.926-17.943,11.896-28.721v-30.333c-0.006-6.305-1.474-12.524-4.287-18.167
			l-1.763-3.521c-1.631-3.271-2.481-6.875-2.483-10.529v-43.625c-0.049-42.395-34.405-76.751-76.8-76.8h-51.2
			c-42.395,0.049-76.751,34.405-76.8,76.8v43.625c-0.003,3.656-0.854,7.262-2.487,10.533l-1.754,3.513
			c-2.816,5.644-4.285,11.864-4.292,18.171v30.333c-0.028,10.786,4.262,21.135,11.913,28.738c3.33,3.381,5.588,7.67,6.492,12.329
			c4.284,18.791,12.558,36.442,24.262,51.754l-0.042,26.563l-94.813,56.921c-6.039,3.689-11.464,8.299-16.079,13.664V102.399H153.6
			c3.371,0,6.426-1.984,7.796-5.064c1.371-3.079,0.801-6.677-1.455-9.182l-76.8-85.329c-1.683-1.851-4.087-2.881-6.588-2.821
			c-2.506,0.07-4.853,1.241-6.417,3.2L1.871,88.537c-2.05,2.561-2.449,6.07-1.028,9.027c1.421,2.956,4.411,4.836,7.692,4.836H25.6
			v358.4c0.031,28.264,22.936,51.169,51.2,51.2h426.667c4.713,0,8.533-3.82,8.533-8.533v-34.475
			C511.907,445.04,499.344,422.866,478.846,410.474z M398.269,382.006l-46.881,25.577l-20.709-20.706l44.23-18.956
			c0.127,0.079,0.22,0.194,0.35,0.27L398.269,382.006z M331.268,411.6l-11.272,15.066h-8.525L300.2,411.6l15.534-15.534
			L331.268,411.6z M239.93,271.849c-1.566-7.955-5.452-15.27-11.167-21.021c-4.43-4.408-6.912-10.405-6.896-16.654v-30.333
			c0.003-3.656,0.854-7.262,2.487-10.533l1.754-3.513c2.816-5.644,4.285-11.864,4.292-18.171v-43.625
			c0.037-32.974,26.759-59.696,59.733-59.733h51.2c32.974,0.037,59.696,26.759,59.733,59.733v43.625
			c0.006,6.305,1.474,12.524,4.287,18.167l1.762,3.521c1.631,3.271,2.481,6.875,2.483,10.529v30.333
			c0.015,6.257-2.474,12.26-6.913,16.671c-5.707,5.748-9.586,13.056-11.15,21.004c-3.857,16.439-11.159,31.872-21.425,45.279
			c-2.057,2.88-3.168,6.328-3.179,9.867v25.779l-51.2,21.942l-51.2-21.942v-25.779c-0.017-3.579-1.154-7.062-3.25-9.962
			C251.05,303.651,243.772,288.251,239.93,271.849z M256.105,368.254c0.164-0.095,0.28-0.239,0.44-0.339l44.244,18.962
			l-20.709,20.706l-46.881-25.577L256.105,368.254z M128,85.333c-4.713,0-8.533,3.821-8.533,8.533v401.067H76.8
			c-18.842-0.022-34.112-15.291-34.133-34.133V93.866c0-4.713-3.82-8.533-8.533-8.533h-7.846l50.896-63.621l57.242,63.621H128z
			 M136.533,494.933l0-25.941c-0.06-17.998,9.399-34.688,24.871-43.883l48.838-29.321l56.654,99.145H136.533z M233.102,401.395
			l44.411,24.229c1.253,0.683,2.656,1.041,4.083,1.042c2.265,0.001,4.437-0.898,6.038-2.5l0.372-0.372l9.564,12.78l-17.579,46.878
			L233.102,401.395z M293.916,494.933l19.2-51.2h5.236l19.2,51.2H293.916z M333.898,436.574l9.564-12.78l0.372,0.372
			c2.677,2.677,6.797,3.271,10.121,1.458l44.411-24.229l-46.889,82.056L333.898,436.574z M364.571,494.933l56.654-99.145
			l48.83,29.316c15.476,9.195,24.938,25.886,24.879,43.888l0,25.941H364.571z"/>
	</g>
</g>
<g>
</g>
<g>
</g>
<g>
</g>
<g>
</g>
<g>
</g>
<g>
</g>
<g>
</g>
<g>
</g>
<g>
</g>
<g>
</g>
<g>
</g>
<g>
</g>
<g>
</g>
<g>
</g>
<g>
</g>
</svg>
