<svg id="Capa_1" enable-background="new 0 0 512 512" height="512" viewBox="0 0 512 512" width="512" xmlns="http://www.w3.org/2000/svg"><g><path d="m451 384.5v-377c0-4.142-3.358-7.5-7.5-7.5h-330c-28.949 0-52.5 23.551-52.5 52.5v407c0 28.949 23.551 52.5 52.5 52.5h330c4.142 0 7.5-3.358 7.5-7.5v-30c0-1.989-.79-3.897-2.197-5.303-10.613-10.613-16.458-24.711-16.458-39.697s5.845-29.083 16.458-39.697c1.407-1.406 2.197-3.314 2.197-5.303zm-15-37.5h-315v-332h315zm-360-294.5c0-18.11 12.904-33.261 30-36.745v331.792c-11.672 1.677-22.119 7.197-30 15.247zm37.5 444.5c-20.678 0-37.5-16.822-37.5-37.5v-60c0-20.678 16.822-37.5 37.5-37.5h322.5v15h-322.5c-12.407 0-22.5 10.093-22.5 22.5v60c0 12.407 10.093 22.5 22.5 22.5h322.5v15zm307.469-90h-292.469c-4.142 0-7.5 3.358-7.5 7.5s3.358 7.5 7.5 7.5h289.248c-.258 2.476-.403 4.976-.403 7.5s.145 5.024.403 7.5h-289.248c-4.142 0-7.5 3.358-7.5 7.5s3.358 7.5 7.5 7.5h292.469c1.746 5.251 4.103 10.282 7.043 15h-314.512c-4.136 0-7.5-3.364-7.5-7.5v-60c0-4.136 3.364-7.5 7.5-7.5h314.512c-2.94 4.718-5.297 9.749-7.043 15z"/><path d="m143.5 167c-4.142 0-7.5 3.358-7.5 7.5v60c0 4.142 3.358 7.5 7.5 7.5h270c4.142 0 7.5-3.358 7.5-7.5v-197c0-4.142-3.358-7.5-7.5-7.5h-270c-4.142 0-7.5 3.358-7.5 7.5v107c0 4.142 3.358 7.5 7.5 7.5s7.5-3.358 7.5-7.5v-99.5h255v182h-255v-52.5c0-4.142-3.358-7.5-7.5-7.5z"/><path d="m286 159.5c0 28.949 23.551 52.5 52.5 52.5s52.5-23.551 52.5-52.5c0-1.142-.261-2.27-.763-3.295l-45-92c-1.258-2.574-3.873-4.205-6.737-4.205h-120c-2.864 0-5.479 1.631-6.737 4.205l-45 92c-.502 1.026-.763 2.153-.763 3.295 0 28.949 23.551 52.5 52.5 52.5s52.5-23.551 52.5-52.5c0-1.142-.261-2.27-.763-3.295l-39.719-81.205h95.965l-39.72 81.205c-.502 1.025-.763 2.153-.763 3.295zm52.5 37.5c-18.109 0-33.255-12.905-36.74-30h73.479c-3.484 17.095-18.63 30-36.739 30zm32.983-45h-65.965l32.982-67.431zm-152.983-67.431 32.983 67.431h-65.965zm0 112.431c-18.109 0-33.255-12.905-36.74-30h73.479c-3.484 17.095-18.63 30-36.739 30z"/></g></svg>