<svg id="Capa_1" enable-background="new 0 0 512 512" height="512" viewBox="0 0 512 512" width="512" xmlns="http://www.w3.org/2000/svg"><g><path d="m150.5 86.863h15v22.118h-15z"/><path d="m210.5 57.107h15v51.875h-15z"/><path d="m180.5 72.106h15v36.875h-15z"/><path d="m447.307 353.116h-15.359l32.869-36.649v-53.543c0-40.232-32.73-72.963-72.962-72.963-40.23 0-72.961 32.731-72.961 72.963v53.543l32.869 36.649h-15.359l-64.693 64.693v94.191h68.145v-15h-53.145v-72.978l55.906-55.906h98.476l55.907 55.906v72.978h-142.143v15h157.143v-94.19zm-55.452-148.156c31.96 0 57.962 26.002 57.962 57.963v5.686l-11.783-13.186h-103.638c3.691-28.428 28.042-50.463 57.459-50.463zm-57.96 105.766v-40.302h97.427l18.496 20.698v19.604l-38.017 42.39h-39.888z"/><path d="m405.743 141.042 40.625 26.982.004-51.482-15-.001-.002 23.516-21.099-14.015h-126.144v-91.647l-11.894-11.895 7.5-7.5h141.04l10.608 10.607-.008 75.933 15 .002.008-82.148-19.395-19.394h-153.465l-15.001 15h-106.646v15h106.646l10.607 10.607v89.829l-10.606 10.607h-130.539l-21.098 14.014-.011-114.45 10.607-10.607h19.393v-15h-25.605l-19.395 19.395.013 148.629 40.624-26.981h132.223l15.001-15.001z"/><path d="m160.236 353.116 32.869-36.649v-53.543c0-40.232-32.73-72.963-72.961-72.963s-72.962 32.731-72.962 72.963v53.543l32.869 36.649h-15.358l-64.693 64.694v94.19h240.288v-94.19l-64.693-64.693h-15.359zm-98.053-42.39v-19.605l18.495-20.697h18.224v-15h-24.937l-11.782 13.185v-5.685c0-31.961 26.002-57.963 57.962-57.963 29.417 0 53.768 22.035 57.459 50.463h-63.702v15h64.203v40.302l-38.017 42.39h-39.888zm163.105 186.274h-210.288v-72.978l55.906-55.906h98.476l55.906 55.906z"/><path d="m312.754 73.271h15.198v15h-15.198z"/><path d="m342.903 73.271h14.95v15h-14.95z"/><path d="m372.804 73.271h14.95v15h-14.95z"/><path d="m467 467h15v15h-15z"/><path d="m195.288 467h15v15h-15z"/><path d="m150.289 467h30v15h-30z"/><path d="m422.001 467h30v15h-30z"/></g></svg>